<svg width="39" height="56" viewBox="0 0 39 56" fill="none" xmlns="http://www.w3.org/2000/svg">
<path d="M35.9588 38.0467V21.3433C35.9588 13.6875 30.739 7.30776 23.7792 5.45182C23.4312 2.31992 21.6913 0 19.3714 0C17.0514 0 15.3115 2.31992 15.0795 5.33582C8.11973 7.19176 2.8999 13.6875 2.8999 21.2273V38.2787C1.15996 39.2067 0 40.9466 0 42.9186C0 45.8185 2.31992 48.1384 5.21983 48.1384H11.0196C11.5996 52.3143 15.1955 55.6781 19.4874 55.6781C23.7792 55.6781 27.4911 52.4303 27.9551 48.1384H33.7549C36.6548 48.1384 38.9747 45.8185 38.9747 42.9186C39.2067 40.7146 37.8147 38.8587 35.9588 38.0467ZM19.3714 2.31992C20.1833 2.31992 20.9953 3.36389 21.3433 4.87184C20.6473 4.75584 20.0673 4.75584 19.3714 4.75584C18.6754 4.75584 18.0954 4.75584 17.3994 4.87184C17.7474 3.36389 18.5594 2.31992 19.3714 2.31992ZM5.21983 21.3433C5.21983 13.5715 11.5996 7.19176 19.3714 7.19176C27.1431 7.19176 33.5229 13.5715 33.5229 21.3433V37.6987H5.21983C5.21983 37.6987 5.21983 37.6987 5.10383 37.6987V21.3433H5.21983ZM19.6033 53.3582C16.4715 53.3582 13.9195 51.1543 13.4556 48.1384H25.7511C25.2872 51.1543 22.7352 53.3582 19.6033 53.3582ZM33.9869 45.8185H5.21983C3.59588 45.8185 2.31992 44.5425 2.31992 42.9186C2.31992 41.2946 3.59588 40.0187 5.21983 40.0187H33.8709C35.4948 40.0187 36.7708 41.2946 36.7708 42.9186C36.8868 44.5425 35.4948 45.8185 33.9869 45.8185Z" fill="#9EBC20"/>
</svg>
