<svg width="56" height="56" viewBox="0 0 56 56" fill="none" xmlns="http://www.w3.org/2000/svg">
<path d="M13.5333 28.4667H41.1833C41.8833 28.4667 42.35 28 42.35 27.3C42.35 19.0167 35.5833 12.25 27.3 12.25C19.0167 12.25 12.25 19.0167 12.25 27.3C12.3667 27.8833 12.95 28.4667 13.5333 28.4667ZM27.4167 14.5833C34.0667 14.5833 39.4333 19.6 40.0167 26.1333H14.8167C15.4 19.6 20.7667 14.5833 27.4167 14.5833Z" fill="#FFA801"/>
<path d="M48.3 28.8167V27.3C48.3 17.85 41.8833 9.8 33.25 7.23333V1.16667C33.25 0.466667 32.7833 0 32.0833 0H22.9833C22.2833 0 21.8167 0.466667 21.8167 1.16667V7.23333C13.0667 9.68333 6.76667 17.7333 6.76667 27.3V28.9333C3.03333 29.4 0 32.6667 0 36.6333V42.9333C0 46.9 2.91667 50.05 6.76667 50.6333V51.3333C6.76667 53.9 8.86667 56 11.4333 56H43.75C46.3167 56 48.4167 53.9 48.4167 51.3333V50.6333C52.15 50.4 55.1833 47.3667 55.1833 43.5167V36.05C54.95 32.2 52.0333 29.05 48.3 28.8167ZM6.53333 48.1833C4.08333 47.7167 2.21667 45.5 2.21667 42.8167V36.5167C2.21667 33.8333 4.08333 31.7333 6.65 31.2667V48.1833H6.53333ZM24.0333 2.33333H30.8V6.76667C29.75 6.53333 28.5833 6.41667 27.4167 6.41667C26.25 6.41667 25.0833 6.53333 24.0333 6.76667V2.33333ZM45.9667 49.4667V51.3333C45.9667 52.6167 44.9167 53.6667 43.6333 53.6667H11.2C9.91667 53.6667 8.86667 52.6167 8.86667 51.3333V49.4667V38.2667H14.2333V44.9167C14.2333 47.4833 16.3333 49.5833 18.9 49.5833H35.8167C38.3833 49.5833 40.4833 47.4833 40.4833 44.9167V38.2667H45.85V49.4667H45.9667ZM16.6833 44.9167V38.2667H38.2667V44.9167C38.2667 46.2 37.2167 47.25 35.9333 47.25H19.0167C17.6167 47.25 16.6833 46.2 16.6833 44.9167ZM45.9667 35.9333H8.86667V27.3C8.86667 17.0333 17.15 8.75 27.4167 8.75C37.6833 8.75 45.9667 17.0333 45.9667 27.3V35.9333ZM52.6167 43.5167C52.6167 45.9667 50.6333 48.0667 48.1833 48.3V31.15C50.6333 31.3833 52.6167 33.4833 52.6167 35.9333V43.5167Z" fill="#FFA801"/>
</svg>
