<svg width="59" height="59" viewBox="0 0 59 59" fill="none" xmlns="http://www.w3.org/2000/svg">
<path d="M29.8178 0.525391C13.7909 0.525391 0.75 13.5663 0.75 29.5932C0.75 45.6201 13.7909 58.661 29.8178 58.661C45.8447 58.661 58.8856 45.6201 58.8856 29.5932C58.8856 13.5663 45.8447 0.525391 29.8178 0.525391ZM29.8178 53.3759C16.7056 53.3759 6.03505 42.7054 6.03505 29.5932C6.03505 16.481 16.7056 5.81044 29.8178 5.81044C42.93 5.81044 53.6005 16.481 53.6005 29.5932C53.6005 42.7054 42.93 53.3759 29.8178 53.3759Z" fill="black"/>
<path d="M29.8173 13.7382C28.3587 13.7382 27.1748 14.922 27.1748 16.3807V34.8784C27.1748 36.337 28.3587 37.5209 29.8173 37.5209C31.276 37.5209 32.4599 36.337 32.4599 34.8784V16.3807C32.4599 14.922 31.276 13.7382 29.8173 13.7382Z" fill="black"/>
<path d="M29.8173 45.4485C31.2768 45.4485 32.4599 44.2654 32.4599 42.806C32.4599 41.3466 31.2768 40.1635 29.8173 40.1635C28.3579 40.1635 27.1748 41.3466 27.1748 42.806C27.1748 44.2654 28.3579 45.4485 29.8173 45.4485Z" fill="black"/>
</svg>
