<svg width="93" height="93" viewBox="0 0 93 93" fill="none" xmlns="http://www.w3.org/2000/svg">
<circle cx="46.5" cy="46.5" r="46.5" fill="#0C71C3"/>
<path d="M46.5 19.375C31.5443 19.375 19.375 31.5443 19.375 46.5C19.375 61.4557 31.5443 73.625 46.5 73.625C61.4557 73.625 73.625 61.4557 73.625 46.5C73.625 31.5443 61.4557 19.375 46.5 19.375ZM46.5 68.6932C34.2642 68.6932 24.3068 58.7358 24.3068 46.5C24.3068 34.2642 34.2642 24.3068 46.5 24.3068C58.7358 24.3068 68.6932 34.2642 68.6932 46.5C68.6932 58.7358 58.7358 68.6932 46.5 68.6932Z" fill="white"/>
<path d="M46.4996 31.7047C45.1384 31.7047 44.0337 32.8094 44.0337 34.1706V51.432C44.0337 52.7932 45.1384 53.8979 46.4996 53.8979C47.8608 53.8979 48.9655 52.7932 48.9655 51.432V34.1706C48.9655 32.8094 47.8608 31.7047 46.4996 31.7047Z" fill="white"/>
<path d="M46.4996 61.2956C47.8615 61.2956 48.9655 60.1916 48.9655 58.8297C48.9655 57.4678 47.8615 56.3638 46.4996 56.3638C45.1377 56.3638 44.0337 57.4678 44.0337 58.8297C44.0337 60.1916 45.1377 61.2956 46.4996 61.2956Z" fill="white"/>
</svg>
