<svg width="71" height="70" viewBox="0 0 71 70" fill="none" xmlns="http://www.w3.org/2000/svg">
<path d="M70.7163 28.0908C70.7163 22.4157 66.4069 17.6136 60.7601 16.886V1.46108C60.7601 0.879003 60.4629 0.296932 59.8685 0.151414C59.2741 -0.139622 58.6797 0.00589614 58.2339 0.44245C50.3581 8.1549 39.8075 12.5204 28.6625 12.5204H17.2202C8.30423 12.5204 0.874218 19.3598 0.725618 27.9453C0.577018 32.1654 2.21162 36.2399 5.33222 39.2957C7.56123 41.4785 10.236 42.9337 13.208 43.6613L17.9632 68.8359C18.1118 69.5634 18.7062 70 19.4492 70H30.8915C31.3373 70 31.7831 69.8545 32.0803 69.4179C32.3775 69.1269 32.5261 68.6903 32.3775 68.2538L27.7709 43.9523H28.6625C39.8075 43.9523 50.3581 48.1723 58.2339 56.0303C58.5311 56.3213 58.8283 56.4668 59.2741 56.4668C59.4227 56.4668 59.7199 56.4668 59.8685 56.3213C60.4629 56.0303 60.7601 55.5937 60.7601 55.0117V39.2957C66.4069 38.5681 70.7163 33.9116 70.7163 28.0908ZM20.638 66.9441L16.18 43.8068C16.3286 43.8068 16.4772 43.8068 16.6258 43.8068H24.6502L29.1083 66.9441H20.638ZM57.7881 51.5192C49.6151 44.6799 39.3617 40.8964 28.6625 40.8964H16.6258C16.18 40.8964 15.7342 40.8964 15.2884 40.8964H15.1398C12.1678 40.6054 9.34443 39.2957 7.26403 37.113C4.73782 34.6392 3.40042 31.4378 3.54902 27.9453C3.69762 20.9605 9.79023 15.4308 17.0716 15.4308H28.5139C39.3617 15.4308 49.6151 11.6473 57.6395 4.80799V51.5192H57.7881ZM60.7601 36.3854V19.9418C64.7723 20.6694 67.7443 24.0163 67.7443 28.0908C67.7443 32.3109 64.7723 35.6578 60.7601 36.3854Z" fill="black"/>
</svg>
