<svg width="94" height="93" viewBox="0 0 94 93" fill="none" xmlns="http://www.w3.org/2000/svg">
<circle cx="47.0713" cy="46.5" r="46.5" fill="#FFA801"/>
<path d="M80.2858 40.6062C80.2858 35.3103 76.2644 30.8292 70.995 30.1502V15.7562C70.995 15.2131 70.7177 14.6699 70.163 14.5341C69.6083 14.2625 69.0537 14.3983 68.6376 14.8057C61.2882 22.0027 51.4428 26.0764 41.0427 26.0764H30.3652C22.0451 26.0764 15.1117 32.4587 14.973 40.4704C14.8344 44.4083 16.3597 48.2105 19.2718 51.0621C21.3518 53.099 23.8478 54.4569 26.6212 55.1359L31.0586 78.6279C31.1972 79.3069 31.7519 79.7142 32.4452 79.7142H43.1227C43.5387 79.7142 43.9547 79.5785 44.232 79.1711C44.5094 78.8995 44.648 78.4921 44.5094 78.0847L40.2107 55.4075H41.0427C51.4428 55.4075 61.2882 59.3455 68.6376 66.6782C68.915 66.9498 69.1923 67.0856 69.6083 67.0856C69.747 67.0856 70.0243 67.0856 70.163 66.9498C70.7177 66.6782 70.995 66.2708 70.995 65.7277V51.0621C76.2644 50.3832 80.2858 46.0378 80.2858 40.6062ZM33.5546 76.8626L29.3945 55.2717C29.5332 55.2717 29.6719 55.2717 29.8105 55.2717H37.2986L41.4587 76.8626H33.5546ZM68.2216 62.4687C60.5949 56.0865 51.0268 52.5559 41.0427 52.5559H29.8105C29.3945 52.5559 28.9785 52.5559 28.5625 52.5559H28.4239C25.6505 52.2843 23.0158 51.0621 21.0744 49.0253C18.7171 46.7168 17.4691 43.7294 17.6077 40.4704C17.7464 33.9524 23.4318 28.7923 30.2265 28.7923H40.904C51.0268 28.7923 60.5949 25.2617 68.083 18.8795V62.4687H68.2216ZM70.995 48.3463V33.0018C74.7391 33.6808 77.5124 36.804 77.5124 40.6062C77.5124 44.5441 74.7391 47.6674 70.995 48.3463Z" fill="white"/>
</svg>
