<svg width="56" height="56" viewBox="0 0 56 56" fill="none" xmlns="http://www.w3.org/2000/svg">
<path d="M28.0001 13.4167C31.7334 13.4167 34.7667 10.3833 34.7667 6.65C34.7667 2.91667 31.7334 0 28.0001 0C24.2667 0 21.2334 3.03333 21.2334 6.76667C21.2334 10.5 24.2667 13.4167 28.0001 13.4167ZM28.0001 2.33333C30.4501 2.33333 32.4334 4.31667 32.4334 6.76667C32.4334 9.21667 30.4501 11.0833 28.0001 11.0833C25.5501 11.0833 23.5667 9.1 23.5667 6.65C23.5667 4.2 25.5501 2.33333 28.0001 2.33333Z" fill="#14B1D2"/>
<path d="M45.2668 15.8667C48.7668 15.8667 51.6834 12.95 51.6834 9.44999C51.6834 5.94999 48.7668 3.03333 45.2668 3.03333C41.7668 3.03333 38.8501 5.94999 38.8501 9.44999C38.8501 12.95 41.6501 15.8667 45.2668 15.8667ZM45.2668 5.36666C47.4834 5.36666 49.3501 7.23333 49.3501 9.44999C49.3501 11.6667 47.4834 13.5333 45.2668 13.5333C43.0501 13.5333 41.1834 11.6667 41.1834 9.44999C41.1834 7.23333 42.9334 5.36666 45.2668 5.36666Z" fill="#14B1D2"/>
<path d="M48.8833 18.7833H37.1C35.8167 17.5 33.95 16.6833 31.9667 16.6833H24.15C22.1667 16.6833 20.3 17.5 19.0167 18.7833H7.11667C3.26667 18.7833 0 21.9334 0 25.9V40.0167C0 40.7167 0.466667 41.1834 1.16667 41.1834H4.31667V54.8334C4.31667 55.5334 4.78333 56 5.48333 56H15.9833C16.6833 56 17.15 55.5334 17.15 54.8334V41.65C17.15 40.95 16.6833 40.4834 15.9833 40.4834C15.2833 40.4834 14.8167 40.95 14.8167 41.65V53.6667H11.9V42.35C11.9 41.65 11.4333 41.1834 10.7333 41.1834C10.0333 41.1834 9.56667 41.65 9.56667 42.35V53.6667H6.65V32.0834C6.65 31.3834 6.18333 30.9167 5.48333 30.9167C4.78333 30.9167 4.31667 31.3834 4.31667 32.0834V38.7334H2.33333V25.7834C2.33333 23.2167 4.43333 21 7.11667 21H17.3833C16.9167 21.9333 16.6833 22.9834 16.6833 24.0334V39.0834C16.6833 39.7834 17.15 40.25 17.85 40.25H21.35V54.8334C21.35 55.5334 21.8167 56 22.5167 56H33.6C34.3 56 34.7667 55.5334 34.7667 54.8334V40.25H38.2667C38.9667 40.25 39.4333 39.7834 39.4333 39.0834V24.0334C39.4333 22.9834 39.2 21.9333 38.7333 21H49C51.5667 21 53.7833 23.1 53.7833 25.7834V38.7334H51.8V32.0834C51.8 31.3834 51.3333 30.9167 50.6333 30.9167C49.9333 30.9167 49.4667 31.3834 49.4667 32.0834V53.6667H46.55V42.35C46.55 41.65 46.0833 41.1834 45.3833 41.1834C44.6833 41.1834 44.2167 41.65 44.2167 42.35V53.6667H41.3V41.65C41.3 40.95 40.8333 40.4834 40.1333 40.4834C39.4333 40.4834 38.9667 40.95 38.9667 41.65V54.8334C38.9667 55.5334 39.4333 56 40.1333 56H50.6333C51.3333 56 51.8 55.5334 51.8 54.8334V41.1834H54.8333C55.5333 41.1834 56 40.7167 56 40.0167V25.7834C56 21.9334 52.85 18.7833 48.8833 18.7833ZM36.9833 37.9167H34.65V30.8C34.65 30.1 34.1833 29.6333 33.4833 29.6333C32.7833 29.6333 32.3167 30.1 32.3167 30.8V53.6667H29.1667V41.65C29.1667 40.95 28.7 40.4834 28 40.4834C27.3 40.4834 26.8333 40.95 26.8333 41.65V53.6667H23.5667V30.8C23.5667 30.1 23.1 29.6333 22.4 29.6333C21.7 29.6333 21.2333 30.1 21.2333 30.8V37.9167H18.9V24.0334C18.9 21.2334 21.2333 18.9 24.0333 18.9H31.85C34.65 18.9 36.9833 21.2334 36.9833 24.0334V37.9167V37.9167Z" fill="#14B1D2"/>
<path d="M10.7336 15.8667C14.2336 15.8667 17.1502 12.95 17.1502 9.44999C17.1502 5.94999 14.2336 3.03333 10.7336 3.03333C7.23356 3.03333 4.31689 5.94999 4.31689 9.44999C4.31689 12.95 7.23356 15.8667 10.7336 15.8667ZM10.7336 5.36666C12.9502 5.36666 14.8169 7.23333 14.8169 9.44999C14.8169 11.6667 12.9502 13.5333 10.7336 13.5333C8.51689 13.5333 6.65023 11.6667 6.65023 9.44999C6.65023 7.23333 8.51689 5.36666 10.7336 5.36666Z" fill="#14B1D2"/>
</svg>
