<svg width="56" height="56" viewBox="0 0 56 56" fill="none" xmlns="http://www.w3.org/2000/svg">
<path d="M15.8669 21.4667H36.1669C36.8669 21.4667 37.3335 21 37.3335 20.3V9.56669C37.3335 8.86669 36.8669 8.40002 36.1669 8.40002H15.8669C15.1669 8.40002 14.7002 8.86669 14.7002 9.56669V20.3C14.7002 20.8834 15.2835 21.4667 15.8669 21.4667ZM17.0335 10.7334H35.0002V19.1334H17.0335V10.7334Z" fill="#D03638"/>
<path d="M54.95 35.8167C55.4167 35.4667 55.65 34.8833 55.4167 34.3C53.6667 30.5667 49.9333 28.2333 45.85 28.2333C45.3833 28.2333 44.8 28.2333 44.3333 28.35V5.83333C44.3333 2.56667 41.7667 0 38.5 0H5.83333C2.56667 0 0 2.56667 0 5.83333V50.1667C0 53.4333 2.56667 56 5.83333 56H38.5C38.7333 56 38.9667 56 39.0833 56C39.4333 55.8833 39.7833 55.8833 40.1333 55.65C41.1833 55.1833 42.4667 55.1833 43.5167 55.65C43.8667 55.7667 44.2167 55.8833 44.5667 56C44.8 56 45.0333 56 45.15 56C50.2833 56 55.1833 45.0333 55.7667 41.5333C56.2333 39.55 55.8833 37.5667 54.95 35.8167ZM45.85 30.6833C48.5333 30.6833 51.1 32.0833 52.6167 34.3C49.35 35.1167 46.2 34.4167 43.6333 31.0333C44.3333 30.6833 45.0333 30.6833 45.85 30.6833ZM7.93333 53.6667H5.83333C3.85 53.6667 2.33333 52.15 2.33333 50.1667V5.83333C2.33333 3.85 3.85 2.33333 5.83333 2.33333H7.93333V53.6667ZM10.2667 53.6667V2.33333H38.5C40.4833 2.33333 42 3.85 42 5.83333V28.2333C41.1833 26.95 39.9 25.6667 38.0333 24.6167C37.45 24.2667 36.75 24.5 36.4 25.0833C36.05 25.6667 36.2833 26.3667 36.8667 26.7167C40.4833 28.7 40.95 31.15 40.8333 32.55C40.4833 32.4333 40.1333 32.3167 39.9 32.2C38.3833 31.5 36.6333 31.2667 34.8833 31.6167C32.6667 31.9667 30.6833 33.25 29.2833 35.1167C28 36.9833 27.4167 39.3167 27.8833 41.5333C28.35 43.9833 30.9167 50.2833 34.1833 53.6667H10.2667V53.6667ZM53.55 41.0667C52.85 44.9167 48.1833 53.6667 45.15 53.6667C43.9833 53.2 42.9333 52.85 41.8833 52.85C40.7167 52.9667 39.55 53.2 38.6167 53.6667C35.5833 53.6667 30.9167 44.9167 30.2167 41.0667C29.9833 39.4333 30.3333 37.8 31.2667 36.4C32.2 35 33.7167 34.0667 35.35 33.8333C36.6333 33.6 37.8 33.7167 38.9667 34.3C40.4833 35 42.2333 35.1167 43.8667 34.65C46.55 36.6333 49.5833 37.3333 52.6167 36.6333C53.55 37.9167 53.9 39.55 53.55 41.0667Z" fill="#D03638"/>
</svg>
